<?xml version="1.0" encoding="UTF-8" standalone="no"?>
<svg
   xmlns:dc="http://purl.org/dc/elements/1.1/"
   xmlns:cc="http://creativecommons.org/ns#"
   xmlns:rdf="http://www.w3.org/1999/02/22-rdf-syntax-ns#"
   xmlns:svg="http://www.w3.org/2000/svg"
   xmlns="http://www.w3.org/2000/svg"
   viewBox="0 0 1132 1133.3333"
   height="1133.3333"
   width="1132"
   xml:space="preserve"
   id="svg2"
   version="1.1"><metadata
     id="metadata8"><rdf:RDF><cc:Work
         rdf:about=""><dc:format>image/svg+xml</dc:format><dc:type
           rdf:resource="http://purl.org/dc/dcmitype/StillImage" /></cc:Work></rdf:RDF></metadata><defs
     id="defs6" /><g
     transform="matrix(1.3333333,0,0,1.3333333,0,-5.0000001e-6)"
     id="g10"><g
       id="g12"><path
         id="path14"
         style="fill:#364555;fill-opacity:1;fill-rule:nonzero;stroke:none"
         d="m 583.699,642 c -5.5,-0.398 -10.398,-1.301 -11,-1.898 C 571.102,638.5 573,638.199 587,637.602 603.102,637 623.801,633 639.898,627.5 c 36.704,-12.398 68.403,-34.602 94.704,-66 15.898,-18.898 31.699,-49.898 38.5,-75.199 5.699,-21.301 6.296,-27.199 6.296,-55.801 0,-25.699 -0.199,-27.602 -2.796,-39.5 -7.602,-34.898 -22.704,-66.398 -43.801,-91.602 -8.602,-10.296 -28.102,-29.097 -28.602,-27.597 -0.199,0.597 0.199,3.699 0.699,6.801 0.602,3.199 1.102,9 1.102,12.898 0,7.398 -2.301,26.398 -4,32.398 -0.898,3.204 -0.602,3.704 4.398,9.5 10.801,12.403 16.903,21.5 23.602,35.102 11.898,24.199 15.898,40.102 16.699,66 1.5,45.5 -14.898,85.898 -47.898,118.602 -11.301,11.097 -29.102,23.796 -42.403,30 -29.796,14.097 -63.296,18.796 -94.398,13.5 -7.801,-1.403 -22.398,-5.102 -24.102,-6.204 -0.398,-0.199 6.5,-7.5 15.301,-16.199 22.602,-22.199 55.5,-61 52.602,-62.097 -0.602,-0.204 -2.199,1.199 -3.699,3 -1.403,1.898 -9,10.398 -16.704,18.898 -28,30.699 -55.796,52.5 -82.597,64.898 -36.801,16.903 -60.602,4.602 -63.403,-32.597 -0.796,-10.699 0.903,-27.199 4.204,-41.102 C 444.898,519.5 446,514 446,513.102 c 0,-1 -1.5,-5.102 -3.398,-9.204 C 438,494 434.301,482.398 432.301,471.801 L 430.602,463 H 306 l -0.199,32.801 c 0,18 -0.102,33.398 0,34.398 0.301,3.403 -2.199,3.903 -17.903,3.602 L 272.5,533.5 v -117 L 358.301,416.199 444,416 V 394 L 358.301,393.801 272.5,393.5 v -46.898 l 4,-0.801 c 2.199,-0.5 40.898,-0.699 86,-0.602 l 82,0.301 5.898,2.398 6,2.403 1.5,-2.403 c 4.403,-6.597 17,-20.597 24.801,-27.398 16.801,-14.699 34.801,-25.102 56,-32.102 14.699,-5 29.102,-7.398 46.602,-8 l 14.801,-0.398 7.699,-4.5 c 4.199,-2.5 10.5,-5.398 14,-6.602 5.5,-1.796 7,-2 10.199,-1 4.301,1.301 9,6.102 9.102,9.403 0,1.199 0.296,3.801 0.597,5.699 2.403,14.102 -3.301,55.602 -8.097,59.398 -0.801,0.602 -10.5,19 -21.602,40.801 -11.102,21.903 -20.5,40 -21,40.301 -1.5,0.898 -2.398,-0.5 -21.301,-37.5 -7.5,-14.602 -15.597,-30.301 -18.097,-35 l -4.5,-8.5 H 491.5 L 491.199,439.801 491,537 h 41 v -5.199 l 0.102,-5.301 19.796,-20.102 c 12,-12.097 20.301,-19.796 20.801,-19.296 0.5,0.5 8.602,0.796 17.903,0.699 L 607.5,487.5 612.301,478 c 2.597,-5.199 11.097,-22.5 18.801,-38.5 16.199,-33.602 15.398,-32 16.5,-32 0.5,0 1,27.699 1.199,64.801 L 649,537 h 41 l -0.199,-97.199 -0.301,-97.301 -21,-0.301 c -11.5,-0.097 -21.5,-0.398 -22.102,-0.597 -0.796,-0.301 -0.597,-2.704 0.704,-8.301 1.699,-7.199 4.097,-19.801 5.597,-29.801 1.301,-8.301 1.5,-35.699 0.301,-38.5 -1.801,-4.301 -5.199,-7 -10.102,-7.801 -2.699,-0.5 -4.398,-1.301 -4.398,-2.097 0,-1.403 14.199,-7.602 20,-8.704 6.5,-1.199 4.898,-2.296 -12.301,-8.898 -11.898,-4.5 -29.5,-8.898 -44.398,-11 -13.602,-2 -48.199,-1.699 -60.801,0.5 -19.699,3.398 -41.199,10 -55.398,17.199 -5.301,2.602 -8.204,3.602 -8.903,2.903 -1.301,-1.301 15.699,-12.403 30.699,-20.102 16.204,-8.301 29.5,-13 53.602,-19 17.898,-4.5 53.199,-5.699 74.5,-2.602 47,6.801 87.898,26.5 121.898,58.704 62.102,58.796 84.301,147.898 57,228.898 -19,56.301 -60.597,103.301 -113.898,128.602 -18.699,8.898 -36.801,14.597 -58.699,18.398 -13,2.301 -42.602,3.301 -58.102,2 z" /><path
         id="path16"
         style="fill:#364555;fill-opacity:1;fill-rule:nonzero;stroke:none"
         d="M 42.602,533.102 C 42.199,532.602 41.699,522.199 41.398,510 41,493.602 41.199,487.5 42.102,486.398 43.102,485.199 55.5,485 128.602,485 H 214 V 463 H 146.801 C 108.5,463 77,462.602 73.602,462 56.602,459.199 44.5,445.398 41.801,425.699 40.602,416.199 41.301,385.898 43,379 c 4.199,-17.102 17.898,-30.898 32.602,-32.699 3.296,-0.5 43,-0.801 88.398,-0.801 h 82.5 l 0.301,24.199 L 247,394 161.301,394.199 75.5,394.5 74.898,415.898 216.5,416.5 l 5.602,2.301 c 11.097,4.5 20.398,15.801 23.398,28.597 2.301,9.801 2,43.102 -0.398,52.903 C 241.199,515.199 234.398,524 222,529.898 l -7.5,3.602 -85.699,0.301 C 74.5,534 43,533.699 42.602,533.102 Z" /><path
         id="path18"
         style="fill:#364555;fill-opacity:1;fill-rule:nonzero;stroke:none"
         d="m 532.602,518 c -1.102,-2.602 -0.204,-109.5 0.898,-109.398 1.199,0.199 0.199,-1.801 18,34.699 l 15.602,31.801 -5.204,7.199 C 556.5,489.699 540,511.199 535.602,516.5 c -1.903,2.301 -2.602,2.699 -3,1.5 z" /><path
         id="path20"
         style="fill:#0a56da;fill-opacity:1;fill-rule:nonzero;stroke:none"
         d="m 583.199,641 c -5.097,-0.398 -9.597,-1 -9.801,-1.301 -0.296,-0.301 5.5,-0.801 12.801,-1.199 14.699,-0.699 38.199,-5 50.5,-9.102 7.903,-2.597 29,-11.097 30.801,-12.398 0.602,-0.398 3.699,-2.199 7,-4 51.102,-28 88.801,-78.699 101.898,-137 3.5,-15.898 3.602,-17 4.301,-38.5 1.102,-36.602 -5.097,-65.301 -21.097,-98 -11.5,-23.301 -23.403,-39.398 -43.903,-59.199 -8.898,-8.602 -11.898,-12.199 -14.5,-17.5 C 695,250 685.102,244 670.301,244 c -5.199,0 -8.5,-0.5 -11.102,-1.898 -6.5,-3.301 -25.398,-9.801 -36.199,-12.5 -24,-5.903 -56.102,-7.403 -79.5,-3.704 -21.898,3.5 -43.699,10.102 -59.398,18 -3.5,1.801 -6.5,3 -6.801,2.704 -0.301,-0.301 3.699,-3.204 8.801,-6.602 65.5,-42.398 147.097,-47.398 216.398,-13.102 57.602,28.5 98.898,78.704 115.301,140.102 5.699,21 6.699,29.301 6.699,54.5 0,24.898 -0.301,28.301 -3.602,44.199 C 816.301,488 810.699,503.801 801,523 c -21.602,42.301 -55.801,75.602 -99.5,97 -20.898,10.199 -34.602,14.602 -59,19 -12.699,2.301 -44.398,3.398 -59.301,2 z" /><path
         id="path22"
         style="fill:#0a56da;fill-opacity:1;fill-rule:nonzero;stroke:none"
         d="M 42.5,531.801 C 42.199,531 42.102,520.602 42.199,508.5 l 0.301,-22 85.398,-0.301 c 66.903,-0.199 85.704,-0.5 86.301,-1.5 0.903,-1.398 0.801,-20.097 -0.199,-21.597 -0.301,-0.704 -26.199,-1.102 -72,-1.301 -51.398,-0.301 -72.398,-0.699 -74.898,-1.5 -8.704,-3.102 -17.704,-12.903 -22.403,-24.5 -2,-4.903 -2.199,-7 -2.199,-29.301 0,-20.898 0.199,-24.699 1.898,-29.5 4.801,-14.102 11,-21.602 22.403,-27.199 L 73.5,346.5 h 173 v 23.199 c 0,14.903 -0.398,23.301 -1,23.301 -0.5,0 -38.898,0 -85.102,0 -71.097,0 -84.296,0.199 -85.296,1.398 -0.801,0.903 -1.102,4.903 -0.903,11.704 l 0.301,10.398 71,0.5 c 53.602,0.5 72,0.898 75.102,1.898 9.699,3 19.796,14.204 23.398,25.903 1.699,5.5 2,9.301 2,27.898 0,16.301 -0.398,23 -1.602,27.602 -3.5,13.5 -10.898,23.199 -22.199,28.801 l -6.699,3.398 -86.301,0.301 c -70.5,0.199 -86.301,0 -86.699,-1 z" /><path
         id="path24"
         style="fill:#0a56da;fill-opacity:1;fill-rule:nonzero;stroke:none"
         d="m 273,475 v -58 l 85.801,-0.199 85.699,-0.301 0.301,-10.898 c 0.199,-8.102 -0.102,-11.102 -1,-11.704 -0.699,-0.5 -39.301,-0.796 -85.801,-0.796 L 273.5,393 273.199,369.5 273,345.898 l 86.199,0.301 86.301,0.301 7,2.801 c 11.199,4.5 18.102,12.301 22.699,25.398 2.199,6.403 2.301,8.102 2.301,32.301 v 25.5 l -3.602,7.602 c -4.796,9.898 -9.597,15.097 -17.597,19.097 l -6.5,3.199 h -72.199 l -72.102,0.102 -1,70 -15.699,0.301 -15.801,0.301 z" /><path
         id="path26"
         style="fill:#fefefe;fill-opacity:1;fill-rule:nonzero;stroke:none"
         d="m 463.699,604.102 c -3.097,-1 -7.398,-3.102 -9.301,-4.602 -15.199,-11.602 -18.296,-42.301 -8.398,-80.699 1.5,-5.699 1.199,-7 -3.398,-17.403 -4,-9 -9.102,-25.398 -10.102,-32.597 l -0.699,-4.602 9.898,-0.398 c 11.801,-0.403 17.199,-2.602 24.801,-10.301 6.699,-6.699 11,-15.801 12.602,-26.398 1.5,-10.301 0.597,-41.102 -1.403,-49.102 -2.5,-10.301 -9.597,-21.301 -17.199,-26.699 l -2.898,-2.102 7.796,-9.699 c 16.903,-20.699 39.403,-37.102 64.5,-47 18.403,-7.301 34.102,-10.398 55.903,-11.102 l 14.398,-0.5 8.199,-4.796 c 4.602,-2.602 11.102,-5.5 14.403,-6.5 5.5,-1.704 6.5,-1.704 9.801,-0.5 6.898,2.597 8.597,7.5 8.699,24.898 0,16.898 -4.602,43.199 -8.301,47.5 -1,1.102 -10.898,19.898 -22,41.801 -11.102,21.898 -20.602,39.5 -21,39 -1.102,-1.199 -4.301,-7.102 -16,-29.801 -19.301,-37.602 -25.199,-49 -26.199,-50.199 -1.602,-1.903 -55.102,-1.801 -56.699,0.097 -0.801,1 -1,27.403 -0.903,98.204 L 490.5,537.5 511.801,537.801 533,538 v -5.699 l 0.102,-5.801 19.398,-19.699 c 10.699,-10.801 19.699,-19.199 20,-18.699 0.699,1.097 33.5,1.199 35.199,0.097 0.699,-0.398 4.801,-8.199 9.102,-17.199 4.398,-9.102 12.5,-25.898 18.199,-37.5 5.602,-11.5 10.699,-22.102 11.398,-23.5 0.801,-1.898 1.204,13 1.403,62.801 L 648,538 h 43 v -97.898 c 0,-88.301 -0.199,-97.903 -1.602,-98.5 C 688.5,341.301 678.5,341 667.102,341 h -20.801 l 1.801,-7.699 c 1.699,-6.903 3.5,-17 5.5,-29.801 0.296,-2.199 0.796,-11.301 1.097,-20.102 0.403,-13.097 0.199,-16.699 -1,-19 -2.398,-4.597 -6.199,-7.5 -10.597,-8.097 C 640.801,256 639,255.398 639,255 c 0,-0.801 14,-6.199 21,-8.102 2.5,-0.597 7.898,-1.199 12.102,-1.199 25.398,0.102 37,23.602 31.398,63.903 -0.898,6 -2,12.398 -2.5,14.296 -0.898,3.204 -0.602,3.704 4.398,9.5 14.403,16.602 26.903,38.102 33,56.801 5.602,16.903 7,26.801 7,48.301 0.102,13 -0.398,22.5 -1.296,27 -7,36.301 -21.403,63 -47.204,88 -17.398,16.801 -36.398,28.5 -58.5,35.801 -31.398,10.301 -59.398,11.301 -90.597,3 l -9.801,-2.5 5.301,-4.699 c 15.301,-13.5 43.398,-44.301 57,-62.602 7.301,-9.801 7.801,-10.898 5.597,-11.301 -0.796,-0.097 -3,1.699 -4.898,4 -1.898,2.403 -9.5,10.903 -16.801,19 C 546.102,576 504.602,603.301 475.5,605.5 c -4.301,0.398 -7.699,0 -11.801,-1.398 z" /><path
         id="path28"
         style="fill:#fefefe;fill-opacity:1;fill-rule:nonzero;stroke:none"
         d="m 533,463.699 c 0,-36.301 0.301,-54.597 1,-54.199 0.602,0.301 1,1 1,1.398 0,0.5 7,15.102 15.5,32.5 l 15.602,31.704 -5.204,7.199 c -4.699,6.398 -21.699,28.597 -26.097,34.097 -1.699,2 -1.801,-0.597 -1.801,-52.699 z" /></g></g></svg>